<?xml version="1.0" encoding="UTF-8"?>
<!DOCTYPE svg PUBLIC "-//W3C//DTD SVG 1.1//EN" "http://www.w3.org/Graphics/SVG/1.1/DTD/svg11.dtd">
<!-- Creator: CorelDRAW 2018 (64-Bit Evaluation Version) -->
<svg xmlns="http://www.w3.org/2000/svg" xml:space="preserve" width="11in" height="8.5in" version="1.1" style="shape-rendering:geometricPrecision; text-rendering:geometricPrecision; image-rendering:optimizeQuality; fill-rule:evenodd; clip-rule:evenodd"
viewBox="0 0 11000 8500"
 xmlns:xlink="http://www.w3.org/1999/xlink">
 <defs>
  <style type="text/css">
   <![CDATA[
    .fil2 {fill:#232C4C}
    .fil11 {fill:#2F6892}
    .fil4 {fill:#3B8FB3}
    .fil3 {fill:#455DD9}
    .fil14 {fill:#550605}
    .fil15 {fill:#694538}
    .fil1 {fill:#6F91FD}
    .fil13 {fill:#9196AF}
    .fil8 {fill:#A8C7FA}
    .fil10 {fill:#B3344E}
    .fil12 {fill:#D3AFAD}
    .fil5 {fill:#F18F76}
    .fil9 {fill:#F24352}
    .fil0 {fill:#FCB2A3}
    .fil6 {fill:#FDD9CC}
    .fil7 {fill:#FDFEFE}
   ]]>
  </style>
 </defs>
 <g id="Layer_x0020_1">
  <metadata id="CorelCorpID_0Corel-Layer"/>
  <g id="_2863715785232">
   <path class="fil0" d="M4366.26 5062.54c123.74,113.36 339.16,244.48 520.8,325.38 420.79,187.41 646.21,114.22 709.3,139.39 -61.63,52.3 -259.47,62.91 -391.01,58.46 -444.32,-15.04 -628.17,-277.12 -839.09,-523.23zm-166.18 -1108.7c11.96,-14.85 9.61,-9.71 21.46,-34.63l54.93 -227.8c20.35,-88.47 38.62,-166.02 61.79,-242.57 -14.42,361.05 -118.48,470.85 -146.56,594.94 -4.27,-124.58 -35.82,-364.46 -63.96,-521.86 58.23,105.06 66.73,275.56 72.34,431.93zm1045.52 -79.3c-2.27,-60.76 -14.09,-57.38 60.26,-66.53l309.8 -21.94 1.78 72.48 -287.47 34.96c-40.51,1.14 -59.24,0.79 -84.37,-18.98zm-2078.71 -371.63c97.91,51.2 167.89,43.74 263.66,21.31 -40.83,46.53 -90.14,56.03 -155.44,47.9 -22.65,-2.82 -59.34,-12.78 -78.07,-21.2l-50.04 -32.29 19.89 -15.72zm313.84 -74.35c-130.11,30.72 -151.52,10.02 -94.52,-110.76 49.89,29.69 93.06,46.82 94.52,110.76zm-319.69 -59.6c-41.85,-8.83 -58.5,-7.53 -63.82,-51.84 -3.91,-32.5 11.97,-53.04 21.07,-66.76 69.19,22.02 58.08,49.69 42.75,118.6zm2966.73 -105.46c-27.85,41.65 -1.95,19.97 -58.76,36.13l-162.05 13.05c-1.39,-120.74 2.5,-227.06 32.93,-341.98 -71.87,32.59 -251.87,-32.29 -507.15,47.55 -30.56,9.56 -41.73,13.96 -74.53,23.28 -20.21,5.74 -24.23,5.5 -44.02,12.65l-26.21 11.77c-1.54,0.73 -5.35,2.54 -7.74,4.26 -42.44,-39.71 -15.41,21.83 36.4,-121.4l-40.8 53.99c-49.92,94.96 -13.9,36.1 -91.83,113.78 -24.28,-4.03 -16.23,-7.73 -16.23,19.82 24.52,-2.3 19.27,4.44 16.23,-19.82 71.08,-13.42 71.17,7.66 108.59,59.76 88.84,123.66 145.03,210.04 160.96,392.58 -69.19,-0.24 -136.73,-8.95 -205.23,-5.17 -61.43,3.39 -98.77,23.26 -154.98,22.12 -32.31,31.3 -88.23,163.64 -213.39,88.46l-58.3 -40.88c-1.31,-4.27 -5.91,-3.56 -9.05,-4.96 0.75,-19.22 5.19,-14.47 -14.43,-13.11l-8.57 -19.31c3.97,-22.78 10.43,-19.48 -10.14,-17.64 3.93,-24.97 9.74,-19.3 -14.69,-19.3 -0.19,25.12 -7.46,21.09 14.69,19.3l10.14 17.64 8.57 19.31c-6.3,23.8 -10.04,18.37 14.43,13.11 -2.36,55.55 -45.47,6.22 -193.55,50.16 -77.81,23.09 -106.96,68.4 -144.35,76.44 -99.56,-131.91 -59.91,-403.95 18.13,-566.87 -38.53,-10.92 -49.75,-8.47 -82.85,-14.52 -15.87,-2.89 -20.04,-3.22 -35.95,-8.34 -49.8,-16.02 -12.89,-1.41 -33.96,-16.29 -184.98,1.3 -431.38,-101.85 -595.05,-100.71l-53.57 -9.79c-3.84,-21.16 -3.1,-41.31 -5,-53.58 -5.37,-34.72 -4.79,-28.55 -11.52,-40.51 -0.2,-0.35 -23.91,-26.52 -24.96,-27.67l-26.76 -31.42c-39.74,-10.09 -31.56,-20.81 -57.74,-66.52 -357.76,49.33 -214.42,72.01 -692.17,71.62l-40.35 48.57c-45.11,13.5 -87.41,-19.43 -137.04,-41.89 -9.55,-4.32 -26.81,-10.55 -38.52,-16.31 -38.63,-19 -54.71,-39.82 -92.07,-48.63l7.25 158.37c1.27,1.94 9.56,12.17 17.38,32.04 1.69,4.3 6.23,17.65 7.31,22.31 7.17,30.87 4.95,33.45 2.04,61.19 17.57,28.15 4.65,0.69 19.98,40.89 8.96,23.49 2.35,2.48 8.99,29.99 7.31,30.28 8.6,42.36 11.15,72.79 -50.9,20.98 -13.69,14.5 -64.01,21.12 6.89,26.96 11.81,22.23 -14.82,14.11 8.17,25.66 12.61,20.5 -13.8,15.07 -11.24,44.66 8.72,15.57 -33.46,36.4 -23.9,-2.57 -19.16,-8.87 -19.16,13.1 89.48,79.96 -26.22,180.85 260.54,160.89 27.27,48.08 71.08,86.65 107.18,122.69 -26.78,24.36 -76.18,30.22 -87.88,38.06l76.77 -5.78c17.65,-7.41 2.15,-34.46 39.6,2.13l22.32 2.35c123.09,19.07 -21.09,18.94 106.89,58.46 42.26,13.05 99.45,23.48 143.72,26.91 87.13,6.74 215.99,-4.74 295.04,-29.62l13.72 -13.42c58.96,20.99 -1.67,5.42 46.04,41.75 28.22,21.48 0.48,3.49 36.97,19.35l36.48 14.19c85.69,46.22 238.02,92.91 340.73,138.65 147.78,65.8 240.72,101.18 252.72,234.9 27.57,307.43 -29.19,634 -12.69,926.86l-16.84 -11.42 -11.5 -15.91 -14.08 -12.42 14.08 12.42 11.5 15.91 16.84 11.42c-10.58,115.02 -11.78,241.75 -19.44,355.67 -3.97,59.02 -7.05,113.05 -13.66,171.62 -11.36,100.58 -7.79,87.12 21.43,161.41 49.12,-1.56 243.12,57.4 321.39,71.17 115.33,20.3 231,31.56 348.24,35.18 265.89,8.22 466.28,-36.44 709.46,-81.18l14.01 -21.77 31.49 -127.61c238.22,150.25 744.48,137.24 1066.68,126.92 15.36,-41.94 148.47,-25.66 235.96,-67.39 17.95,-8.56 22.54,-11.36 45.19,-19.94 120.16,-45.58 91.2,-91.81 71.09,-206.46 -14.37,-81.94 0.81,-73.68 -44.47,-123.1 -223.59,8.39 -481.14,15.64 -698.7,-1.33 -114.17,-8.9 -212.59,-21.21 -327.47,-36.43 -62,-8.21 -270.3,-52.51 -304.17,-66.47l10.81 -133.48c109.87,6.21 433.63,75.33 633.78,88.79 201.84,13.57 471.77,8.9 667.76,-5.77l0 -83.26c-11.17,-6.44 -13.94,-9.93 -40.65,-15.97 -20.97,-4.74 -34.6,-5.28 -56.25,-5.41 -34.56,-0.2 -75.57,3.99 -111.37,4.88 -103.14,2.57 -563.93,1.11 -600.65,-35.37 -135.47,3.13 -373.73,-39.63 -478.09,-89.54l-1.12 -373.48 316.04 68.72c153,5.08 260.05,43.31 444.41,43.31l0.04 10.83 553.15 -3.53c-9.65,-95.97 -194.76,-528.15 -105.19,-807.1 45.01,-140.17 104.68,-110.05 121.34,-227.84 -83.15,-37.58 -67.75,-61.09 -192.13,-69.44 -29.11,115.94 -40.7,48.98 -57.73,138.82 -113.58,0.89 -170.26,89.26 -333.33,67.18 -144.89,-19.62 -191.78,-119.59 -160.31,-246.72l6.11 -31.86c13.8,-35.64 18.52,-38.61 29.36,-67.96 -9.71,-26.01 9.35,2.71 -15.77,-23.61 -13.97,-14.64 -2.62,-2.52 -15.04,-12.7 -29.15,-23.91 -8.57,6.95 -42.2,-31.72l-57.54 5.4c14.23,-29.41 13.56,-17.77 -22.38,-16.14 0,32.6 -7.81,27.74 22.38,16.14 -63.43,7.15 -0.31,0.02 -100.55,139.2 -32.75,45.47 -69.29,102.3 -101.66,147.88l-209.13 287c-25.26,-37.67 -33.67,-218.49 -26.55,-287.7l25.46 -70.24c20.92,1.7 14.98,5.44 11,-16.98 25.59,8.15 22.12,14.25 16.37,-11.39 22.09,0.39 19.44,6.78 15.19,-12.78 25.42,8.61 20.15,12.52 13.98,-13.72 24.82,5.69 21.93,12.37 16.7,-11.23 22.13,6.02 15.23,8.99 15.23,-15.62 -23.28,1.76 -20.36,-5.12 -15.23,15.62 -25.8,-5 -23.98,-12.49 -16.7,11.23 -23.01,-6.34 -17.69,-10.19 -13.98,13.72 -25.22,-8.31 -20.62,-13.09 -15.19,12.78l-16.37 11.39c-24.32,-10.61 -15.54,-10.58 -11,16.98 -30,-13.2 -18.26,-50.6 -17.52,-95.23 0.63,-37.7 0.74,-74.52 0.54,-112.24 -0.43,-81.26 -13.17,-159.37 -12.59,-235.63 50.46,31.74 101.4,113.15 202.06,163.66 151.35,75.94 173.39,15.15 302.19,5.71l-42.04 -45.36c-37.57,-19.2 23.76,-17.59 -60.91,-2.1 0.2,-0.07 47.65,11.5 23.69,-52.87zm-2574.89 30.98c-63.83,-33.57 -61.07,-105.12 14.09,-114.08 24.68,53.94 28.99,72.89 -14.09,114.08zm140.92 -207.9c94.47,-4.02 157.95,47.62 148.42,146.4 -9.78,101.29 -77.96,101.65 -162.59,123.07l14.17 -269.47zm-692.71 93.03c26.91,-60.42 113.46,-131.28 189.31,-55.07 -31.99,13.14 -63.41,7.05 -105.73,17.34 -34.27,8.33 -56.63,24.93 -83.59,37.73zm443.23 -86.02c18.69,-55.81 23.17,-75.94 94.75,-76.55 53.04,-0.45 74.93,19.82 96.35,49.84 -103.33,-9.26 -101.74,2.28 -191.1,26.7z"/>
   <path class="fil1" d="M8810.63 6079.87l-355.7 -39.3c-26.88,79.07 63.94,126.31 -330.39,105.96 -211.41,-10.91 -589.41,-82.24 -780.15,-162.09 -53.07,-22.22 -111.65,-51.56 -158.64,-76 -68.3,-35.53 -84.72,-67.19 -137.13,-99.86l36.32 183.82 -0.67 -46.44c150.11,121.92 540.84,214.98 779.09,261.33 341.05,66.37 613.96,50.14 920.16,-52.92l27.1 -74.51c60.9,-43.31 85.15,-23.53 201.14,-27.12 1161.77,-35.93 813.65,-1347.23 33.44,-1997.41 -127.99,-32.97 -761.49,53.43 -909.06,94.72 -97.15,173.17 4.18,724.43 -27.71,788.54 -123.17,-82 -58.87,-608.61 -39.6,-758.52l-24.29 -4.2c-1.89,-0.5 -6.6,-1.52 -8.64,-2.12l-26.58 -10.11 9.57 -10.91 -9.57 10.91c-43.84,-6.7 -11.96,22.9 -43.08,-29.2 -15.37,9.4 -37.39,16.15 -42.71,3.96 -109.27,451.82 -48.86,625.92 -61.26,680.1 -1.26,5.53 -2.93,8.8 -4.48,13.87l-13.25 28.18c-26.24,-27.96 -36.44,-39.06 -40.84,-109.83 -11.6,-186.36 17.03,-410.88 58.42,-590.61 25.13,-109.13 18.09,-92.41 -41.15,-178.56 -222.3,-323.25 -207.58,-258.15 -319.09,-582.8 -26.64,-77.55 -10.41,-18.62 -73.02,-68.42 -30.14,-1.46 -53.06,-4.43 -84.98,-10.39 -13.39,-2.5 -33.94,-6.43 -43.64,-11.64 -30.83,-16.58 -14.22,4.76 -24.95,-26.4 -128.33,156.01 -214.16,121.06 -482.99,152.63l35 -133.52c-40.81,15.26 -98.97,36.28 -123.93,64.06l-0.79 68.74 9.89 126.8c46.92,3.78 505.33,179.87 469.85,468.83 -26.16,213.03 -41.69,707.59 -113.99,854.59l-86.72 280.59c-22.62,56.79 -8.5,93.77 7.19,166.85 10.35,23.66 13.35,43.59 21.19,76.2 5.13,21.35 14.87,65.27 20.39,92.26 14.88,72.85 34.02,115.03 -3.28,181.65l-7.68 30.54 29.94 44.29c53.02,-189.8 195.25,-504.25 324.27,-658.8 63.96,-76.62 402.7,28.85 499.64,50.93 72.46,16.5 149.09,35.65 226.17,53.59l164.7 40.74c113.42,43.97 53.82,141.63 80.41,239.86 118.7,26.76 293.56,-30.88 396.14,-86.6l83.73 -42.48c18.06,-11.31 18.77,-12.33 28.4,-20.83 -50.13,-194.54 -107.5,-355.41 -92.69,-570 20.81,-301.6 79.1,-351.77 120.68,-534.04 2.63,69.75 -65.58,317.46 -60.2,590.17 3.02,153.28 26.97,477.72 121.16,553.26 50.63,-65.43 58.02,-114.47 163.32,-66.04 58.97,27.12 129.76,84.27 154.51,112.73 -74.55,-15.71 -85.24,-43.91 -144.06,-54.05 -88.56,-15.26 -86.41,26.34 -118.21,81.65 -101.16,-23.9 -72.16,-98.31 -309.16,10.29 -131.52,60.26 -192,67.87 -350.24,64.54 8.3,170.75 31.18,332.27 103.84,474.29 89.25,27.74 265.81,54.43 361.11,48.19 13.62,21.58 9.79,-6.06 7.74,36.02z"/>
   <path class="fil2" d="M2498.7 3822.08c-132.5,159.25 -257.98,421.28 -309.56,677.81 -9.74,83.53 9.24,99.72 64.62,132.21 84.15,49.37 308.02,175.52 382.68,199.21l1.65 72.19 1.19 63.25c-15.15,239.76 -9.27,586.43 -62.27,822.05 -14.55,64.67 -28.35,54.22 2.41,100.39l162.57 35.92c449.77,78.5 464.95,87.38 963.52,76.8 112.75,-2.39 277.16,-32.25 354.51,-63.46 74.54,-101.55 44.78,-344.9 39.52,-480.58 -3.48,-89.86 -34.52,-416.87 -20.98,-469.13 18.15,25.09 25.13,33.16 51.36,59.49l14.08 12.42 11.5 15.91 16.84 11.42c-16.5,-292.87 40.26,-619.44 12.69,-926.86 -11.99,-133.72 -104.93,-169.1 -252.72,-234.9 -102.72,-45.74 -255.04,-92.43 -340.73,-138.65l-53.57 -3.97c-63.87,423.67 -374.07,558.39 -482.96,437.21 -64.51,-71.79 -37.65,-185.11 -42.24,-280.04l-20.63 -78.81c-11.95,-31.11 -19.85,-69.29 -28.04,-106.73 -17.96,-82.09 6.22,-51.15 -51.43,-85.28l-22.32 -2.35 -39.6 -2.13 -76.77 5.78c-158.67,42.78 -190.27,57.67 -275.33,150.83z"/>
   <path class="fil3" d="M7049.36 5756.45l-0.74 52.14c52.4,32.67 68.82,64.33 137.13,99.86 46.99,24.44 105.56,53.78 158.64,76 190.74,79.86 568.75,151.19 780.15,162.09 394.33,20.35 303.5,-26.89 330.39,-105.96l355.7 39.3c2.05,-42.08 5.88,-14.44 -7.74,-36.02 -95.3,6.24 -271.86,-20.44 -361.11,-48.19 -72.66,-142.02 -95.54,-303.54 -103.84,-474.29 158.23,3.33 218.71,-4.28 350.24,-64.54 237,-108.6 208,-34.19 309.16,-10.29 31.8,-55.31 29.65,-96.91 118.21,-81.65 58.83,10.14 69.51,38.34 144.06,54.05 -24.74,-28.46 -95.54,-85.61 -154.51,-112.73 -105.3,-48.43 -112.69,0.61 -163.32,66.04 -94.19,-75.54 -118.14,-399.98 -121.16,-553.26 -5.38,-272.7 62.83,-520.42 60.2,-590.17 -41.58,182.28 -99.87,232.44 -120.68,534.04 -14.81,214.58 42.56,375.45 92.69,570 -9.63,8.49 -10.34,9.52 -28.4,20.83l-83.73 42.48c-102.58,55.72 -277.44,113.35 -396.14,86.6 -26.59,-98.23 33.01,-195.89 -80.41,-239.86l-164.7 -40.74c-77.08,-17.94 -153.71,-37.09 -226.17,-53.59 -96.94,-22.08 -435.68,-127.54 -499.64,-50.93 -129.02,154.54 -271.25,469 -324.27,658.8z"/>
   <path class="fil2" d="M5971.45 2592.75l18.59 25.3c55.04,70.58 38.24,52.33 66.62,34.9 11.02,-42.38 -12.9,-23.78 22.39,-28.48 43.6,-111.63 155.94,-143.89 306.84,-147.51 315.04,-7.54 227.13,-38.7 357.68,-72.91 -10.27,230.35 102.7,228.64 123.18,307.31 17.62,67.69 14.43,347.3 -14.26,394.02 6.94,64.44 -0.82,136.13 -25.17,195.66l-35 133.52c268.83,-31.57 354.65,3.37 482.99,-152.63 77.62,-320.2 160.26,-927.49 -110.46,-1172.2 -36.41,-32.91 -85.14,-67.83 -149.97,-85.52 -138.9,-37.91 -64.75,-30.68 -152.94,-97.65 -213.2,-161.9 -517.59,-92.98 -729.15,41.59 -220.31,140.15 -343.11,319.02 -161.33,624.6z"/>
   <path class="fil4" d="M5553.77 5780.07l-14.01 21.77c-5.99,93.38 -38.51,211.52 -51.33,313.85 -14.14,112.9 -22.82,228.03 -25.94,342.17l1697.39 0c-4.78,-35.55 -9.96,-69.09 -16.62,-103.86 -1,-5.24 -10.46,-62.92 -10.44,-63.08 4.57,-59.82 -16.68,-29.02 28.26,-60.38 -38.24,-26.81 -47.54,-40.51 -57.46,-101.08 -7.09,-43.24 -15.38,-92.44 -18.67,-137.06l-36.32 -183.82 0.74 -52.14 -29.94 -44.29c-28.71,119.89 -558.89,172.98 -702.7,172.11 -185.39,-1.12 -388.62,-43.49 -564.38,-96.4 -56.4,-16.98 -107.2,-44.47 -157.78,-56.67l-40.78 48.87z"/>
   <path class="fil2" d="M7793.54 2442l-4.48 5.56c28,4 26.82,-5.16 18.82,17.14 108.16,-5 212.19,47.59 368.85,33.2 149.87,-13.76 217.86,-66.65 328.82,-99.55 -24.71,59.81 -58.19,78.5 -92.26,114.39l-31.79 42.35c124.76,56.62 264.33,-59.74 289.11,-131.91l-4.65 330.9 47.18 203.32c85.18,-30.13 163.78,-96.56 224.11,24.19 38.87,-13.44 27.68,-6.22 48.43,-23.68 51.27,-170.81 238.87,-374.33 123.72,-625.91 -74.73,-163.28 -171.37,-138.17 -207.8,-195.11 -29.47,-46.06 -46.57,-158.39 -156.45,-260.43 -287.62,-267.11 -682.75,63.4 -880.83,142.61 -48.47,19.39 -97.63,39.24 -153.89,53 -45.74,11.19 -314.67,-4.9 -128.19,106.04 46.74,27.8 84.67,33.07 136.75,43.41 -34.96,39.75 -86.62,49.12 -141.63,62.46 36.4,86.08 121.54,126.48 216.18,158.02z"/>
   <path class="fil2" d="M4036 6457.87l1426.49 0c3.13,-114.14 11.81,-229.27 25.94,-342.17 12.81,-102.34 45.33,-220.47 51.33,-313.85 -243.18,44.74 -443.56,89.4 -709.46,81.18 -117.24,-3.62 -232.91,-14.89 -348.24,-35.18 -78.27,-13.77 -272.26,-72.72 -321.39,-71.17 3.93,190.3 -95.36,491.13 -124.68,681.19z"/>
   <path class="fil5" d="M4745.78 2903.31c21.63,-42.24 -11.7,-15.26 30.26,-20.88l123.95 16.91c86.96,5.77 138.58,-8.57 180.25,19.44 4.03,-2.27 15.67,-6.87 17.33,-6.76l13.52 4.18c-33.87,75.39 -97.49,176.01 -196.83,172.41 -105.02,-3.81 -188.54,-86.15 -197.09,-186.3 20.48,-9.75 3.26,-10.22 28.61,1zm244.9 -186.65c14.44,22.46 149.99,75.02 20.54,120.7 -13.57,-17.35 -12.15,16.76 -24.61,-50.39 -7.02,-37.83 -5.11,-37.71 4.07,-70.31zm-393.37 5.1c34.77,-61.76 174.08,-58.55 201.33,13.89 -41.28,15.14 -55.54,-4.23 -95.58,-8.14 -32.21,-3.15 -35.19,2.28 -59.9,3.61 -55.33,3 -20.55,11.07 -45.86,-9.36zm508.24 -25.31c15.22,-83.9 110.19,-85.49 143.32,-78.76 62.66,12.72 25.38,0.85 38.83,34.63 -35.99,14.98 -47.87,2.67 -94.61,13.3 -31.81,7.23 -46.45,20.62 -87.54,30.83zm-570.46 -125.96c45.01,-143.91 174.8,-155.67 238.24,-31.77 -165.15,-52.89 -120.93,-29.65 -238.24,31.77zm542.04 -93.47c32.8,-145.19 156.55,-93.93 208.6,-18.71 -134.46,-34.93 -98.61,-32.46 -208.6,18.71zm-681.69 35.88l-23.57 186.48 -126.53 -43.33c-64.11,35.19 -142.09,58.55 -107.56,187.25 21.28,79.32 91.04,112.33 194.76,98.66 3.54,-2.22 10.22,-7.2 12.16,-2.99 1.81,3.93 9.12,-2.18 11.52,-1.91 95.85,10.78 -39.63,-37.6 28.33,6.96 9.27,6.08 97.8,178.88 264.2,234.17l1.09 44.98 28.06 -30.56c127.68,48.04 259.26,31.4 388.89,5.35l24.16 32.37 -2.68 -52.03 79.54 -41.91c0,-27.55 -8.06,-23.85 16.23,-19.82 77.93,-77.68 41.91,-18.83 91.83,-113.78l40.8 -53.99c13.75,-39.92 44.57,-160.43 69.38,-181.76l-12.22 -217.14 -53.63 -214.52 -32.09 -43.36c-5.58,-9.46 -13.04,-25.64 -18.26,-37.13 -14.46,-31.83 -21.07,-48.57 -32.59,-80.94 -100.61,27.2 -92.96,15.84 -184.34,-19.03 -34.59,28.07 -35.65,46.24 -85.39,52.78 -48.28,6.34 -85.04,-9.88 -122.95,-21.88 -120,82.24 -56.98,51.8 -236.11,23.93 -15.04,23.75 -24.13,37.05 -36.13,55.59 -80.81,9.35 -64.65,-1.54 -130.06,-14.41 0.85,84.83 -7.09,203.67 -46.83,261.97z"/>
   <path class="fil6" d="M8060.26 3201.92c48.67,-16.48 176.44,-10.95 255.7,-50.09 57.79,-28.54 13.44,-33.15 78,-21.37 -31.09,89.98 -259.69,133.52 -333.71,71.47zm-59.42 -160.72c20.2,-41.23 49.41,-58.81 89.92,-78.28 6.85,47.9 -0.33,95.95 -13.22,130.72 -36.51,-2.31 -23.11,7.61 -51.31,-12.56 -23.52,-16.83 -23,-37.12 -25.4,-39.88zm266.59 -138.89l15.93 -17.48c32.05,-17.81 47.4,-18.83 103.41,-12.77 63.11,6.83 81.36,13.13 103.47,58.03 -49.98,20.17 -36.29,-1.15 -91.82,-10.07l-96.01 -0.63c-34.07,-6.63 -17.43,-5.12 -34.99,-17.07zm-446.54 -59.33c9,-86.26 187.57,-46.48 197.08,26.12 -89.16,14.54 -2.2,-31.45 -197.08,-26.12zm470.62 -127.1c4.09,-24.11 -8.56,-26.81 32.26,-41.97 60.85,-22.61 134.22,1.19 179.45,64.42 -44.93,-14.55 -135.46,-48.85 -211.7,-22.44zm-477.7 -35.42c48.7,-56.55 126.4,-63.73 167.21,-40.73 25.21,14.21 25.17,24.98 35.91,45.69 -74.7,-28.15 -97.15,-20.67 -203.12,-4.96zm-42.07 296.36c-85.43,-4.25 -149.97,-30.47 -144.61,-171.82 4.47,-117.78 48.71,-167.53 150.41,-171.13 -21.36,113.59 -19.76,219.81 -5.8,342.95zm108.67 316c36.06,13.79 65.98,57.7 101.5,83.64 2.46,1.8 5.8,4.11 8.35,5.83l54.57 31.17c33.56,18.43 8.13,30.06 53.72,19.57 100.54,13.76 148.98,21.13 250.61,-1.88 70.32,-15.92 129.91,-53.09 193.9,-62.9 38.39,-29.54 86.7,-68.44 126.13,-99.39 46.75,-36.71 98.82,-78.43 172.24,-24.11 37.93,-30.55 84.99,-52.55 109.15,-95.9 13.82,-24.81 17.51,-56.03 19.37,-93.47 2.38,-47.63 4.68,-63.98 15.75,-97.48 -20.76,17.46 -9.56,10.24 -48.43,23.68 -60.32,-120.75 -138.93,-54.33 -224.11,-24.19l-47.18 -203.32c-15.19,-13.64 -9.59,-5.69 -22.87,-26.65 -28.31,-44.69 -23.17,-117.18 -31.7,-164.91 -54.93,36.4 -202.07,54.79 -283.41,35.89 7.75,-62.05 17.11,-58.27 54.73,-101.63l-98.11 29.27c-47.61,12.74 -105.61,20.59 -161.78,21.64 -104.14,1.94 -224.4,-16.68 -316.68,-49.54l1.73 -33.45 -18.82 -17.14 4.48 -5.56c15.29,222.65 -81.57,143.24 -146.65,261.79 -52.77,96.13 -25.67,223.11 25.48,259.37l59.79 24.49c3.03,1.33 7.08,3.38 9.76,4.65 2.65,1.25 7.26,4.08 9.37,5.15 26.95,13.62 42.99,119.53 56.21,150.7l72.9 144.66z"/>
   <path class="fil0" d="M2073.81 6457.87l424.24 0 -60.48 -78.12 1.21 -60.19c-18.13,-58.36 -12.94,-87.76 -35.83,-141.41 -86.21,-202.01 20.22,-627.65 79.06,-835.65 19.93,-70.48 91.46,-229.54 93.32,-279 27.71,-27.72 24.76,-24.11 26.09,-72.18 3.64,-2.86 13.7,-9.41 16.15,-11.04 2.15,-1.43 8.63,-1.34 10.32,-6.51 1.85,-5.67 7.69,-4.54 11.39,-7.03l-1.19 -63.25c-27.01,33.19 1.26,-23.78 -28.7,46.42 -7,16.41 -5.57,8.65 -7.96,41.41 -10.21,10.6 -6.22,-13.34 -23.38,36.15 -12.53,36.15 -3.54,19.59 -2.72,36.03 -26.72,-50.36 10.11,-82.25 -50.39,-133.31 -21.81,-18.41 -79.6,-48.91 -109.54,-72.11 -70.37,-54.55 -167.54,-117.8 -177.99,-196.73 -47.49,54.31 -91.84,327.91 -104.28,390.71 -55.25,278.76 -92.11,624.69 -71.96,916.28 10.74,155.41 0.27,327.46 12.64,489.53z"/>
   <path class="fil6" d="M6310.02 3194.1c63.15,10.86 59.93,10.28 122.54,-9.94 37.43,-12.09 17.46,-2.9 47.36,-20.55l50.34 -31.36c-16.47,168.64 -137.93,183.91 -220.24,61.85zm-12.94 -82.91c-39.89,-10.66 -33.28,-16.39 -55.28,-42.21 15.83,-40.2 36.58,-52.14 54.34,-92.99l0.94 135.2zm269.79 -192.83c72.7,13.79 77.72,95.71 -1.7,109.6 -17.96,-44.95 -18.31,-65.34 1.7,-109.6zm-367.89 69.27c-75.47,-25.93 -82.37,-92.87 1.63,-116.8 39.35,73.46 -0.98,103.62 -1.63,116.8zm331.39 -162.17c25.04,-46.25 107.77,-96.56 134.22,9.62 -29.74,-27.74 -65.98,-62.47 -134.22,-9.62zm-419.61 -59.72l48.62 -51.29c70.17,14.67 72.29,18.96 90,76.75 -40.35,-32.44 -69.83,-68.81 -126.96,-15.94l-11.67 -9.52zm-31.72 -141.28c-35.29,4.7 -11.37,-13.9 -22.39,28.48 -29.71,72.02 -30.41,38.4 -35.26,155.03 -2.64,63.55 -11.11,124.62 9.96,172.34 -6.43,86.83 33.13,251.36 96.43,283.17 23.96,64.37 -23.49,52.8 -23.69,52.87 84.67,-15.48 23.34,-17.1 60.91,2.1l42.04 45.36 117.16 42.13c163.28,18.3 243.37,-25.22 379.18,-40.85 24.96,-27.78 83.12,-48.8 123.93,-64.06 24.35,-59.54 32.12,-131.22 25.17,-195.66 -19.36,-79.03 32.91,-288.81 -19.86,-371.24 -8.04,-12.56 -47.54,-43.57 -88.38,-106.9l-52.46 -146.13c-255.37,84.46 -284.39,-15.38 -612.74,143.36z"/>
   <path class="fil6" d="M2572.58 2990.6c-2.75,40.18 -8.27,26.8 2.38,71.72 17.49,73.79 7.43,26.21 24.36,43.81 -5.54,48.41 2.97,48.78 -0.46,88.28 -2.2,25.33 -1.94,19.57 -6.44,35.66l-16.98 40.85c-27.58,-8.33 -23.04,-13.44 -14.82,14.11 -27.17,-8.36 -21.61,-12.43 -13.8,15.07 -30.79,13.22 -19.17,-2.09 -33.46,36.4 42.18,-20.83 22.22,8.26 33.46,-36.4 26.42,5.42 21.97,10.58 13.8,-15.07 26.63,8.12 21.71,12.85 14.82,-14.11 50.32,-6.62 13.11,-0.14 64.01,-21.12 -2.55,-30.43 -3.84,-42.5 -11.15,-72.79 -6.64,-27.51 -0.03,-6.5 -8.99,-29.99 -15.33,-40.2 -2.42,-12.74 -19.98,-40.89 2.91,-27.74 5.13,-30.32 -2.04,-61.19 -1.08,-4.66 -5.63,-18.01 -7.31,-22.31 -7.81,-19.87 -16.11,-30.09 -17.38,-32.04l-7.25 -158.37c37.37,8.81 53.44,29.63 92.07,48.63 11.72,5.76 28.97,11.99 38.52,16.31 49.63,22.46 91.94,55.39 137.04,41.89l14.57 -88.93c170.94,-11.65 377.46,-0.71 562.02,-24.87 57.02,-7.46 115.93,-26.17 171.1,-30.98l42.57 91.11 26.76 31.42c1.06,1.15 24.77,27.31 24.96,27.67 6.73,11.96 6.15,5.8 11.52,40.51 1.9,12.26 1.16,32.42 5,53.58l53.57 9.79c-26.67,-28.44 -28.35,-32.9 -33.83,-89.48 -9.8,-101.06 -25.76,-267.57 -78.42,-344.68 -40.44,-59.23 -29.59,-98.41 -50.85,-147.7l-9.45 -16.89c-1.39,-2.23 -4.16,-5.28 -5.63,-7.41l-68.29 -139.49c-72.28,13.11 -17.94,3.15 -67.35,45.04l-56.17 -109.33c-38.61,28.92 -22.74,10.55 -41.43,57.29l-44.61 -70.91c-73.37,17.98 -41.74,78.81 -141.69,111.28 -11.69,-42.94 1.97,-47.88 -24.98,-85.17 -31.2,21.81 -100.52,72.25 -120.96,100.35l-59.7 -44.43c-48,45.54 -66.15,27.07 -170.39,132.61 -120.95,122.45 -147.5,123.42 -209.51,317.63 -20.13,63.05 -36.79,191.61 10.8,233.55z"/>
   <path class="fil2" d="M4130.74 2162.06c86.73,-96.2 11.96,-46.72 80.57,-157.72 213.58,-345.56 339.33,-215.51 443.7,-295.11 9.56,-27.89 22.4,-52.84 18.58,-96.03 -60.45,-42.17 -79.86,-36.72 -164.34,-19.56 39.61,-73.13 72.28,-96.57 45.01,-194.26 -76.74,-21.39 -126.44,16.67 -181.93,43.41 -28.55,-93.61 -26.94,-146.39 -81.82,-206.35 -133.43,-4.54 -116.12,94.66 -182.07,161.28l-26.56 -21.91c-2.11,-2.08 -5.38,-5.34 -7.61,-7.67 -12.57,-13.14 -18.58,-23.57 -32.25,-38.84 -162.04,-181.12 -161.06,155.74 -170.92,167.4 -36.36,43 -283.76,20.13 -162.7,209.75 17.53,27.46 46.96,46.9 66.64,86.2 -47.35,44.07 -96.68,95.39 -80.9,193.13 77.85,61.16 118.15,37.63 230.57,39.55 -9.15,211.6 97.8,227.91 206.03,136.76z"/>
   <path class="fil5" d="M2498.7 3822.08c85.06,-93.16 116.66,-108.05 275.33,-150.83 11.7,-7.84 61.09,-13.7 87.88,-38.06 -36.09,-36.05 -79.91,-74.61 -107.18,-122.69 -286.77,19.96 -171.07,-80.93 -260.54,-160.89 -163.09,51.16 -487.55,259.91 -587.99,391.52 -66.83,87.57 -142.52,210.12 -182.31,316.92 -31.8,85.33 -70.32,337.78 -56.35,441.61 69.8,34.04 148.56,3.07 204.32,-42.57 77.39,-63.35 23.43,-135.32 97.7,-215.37 1.84,2.42 3.45,3.93 3.89,8.24l18.67 73.56c17.11,55.74 12.57,46.83 60.78,58.77 2.76,-2.78 6.62,-11.08 7.65,-8.91 14.22,29.86 31.37,-157.99 62.68,-235.59 118.53,-293.8 -63.74,-215.11 300.9,-310.95l66.97 -7.22c1.35,0.21 5.31,1.13 7.61,2.48zm391.7 -154.48c-37.45,-36.59 -21.94,-9.54 -39.6,-2.13l39.6 2.13z"/>
   <path class="fil7" d="M6132.79 5072.68l392.32 17.01c128.48,1.76 302.73,-12.91 423.42,2.58 21.54,36.11 17.56,27.79 20.96,80.59 -5.99,-8.79 -4.24,2.35 12.13,-8.2l86.72 -280.59c8.82,-83.75 -10.46,-29.94 -72.65,-189.82 -41.48,65.21 -5.62,56.99 -122.73,56.43l-306.11 -1.05c-21.88,0.24 -64.46,2.32 -84.1,0.47l-68.67 -17.59c-91.16,12.71 -302.15,-0.04 -399.37,-35.58 -4.14,-1.51 -18.51,-7.43 -21.61,-8.66 -2.8,-1.11 -9.48,0.13 -11.53,-4.87 -2.12,-5.18 -8.04,-3.17 -11.93,-5.03l-316.04 -68.72 1.12 373.48c104.36,49.92 342.62,92.67 478.09,89.54z"/>
   <path class="fil2" d="M4194.42 2167.52c-32.74,262.89 -2.97,258.94 50.9,488.53l126.53 43.33 23.57 -186.48 5.28 -332.09c36.3,4.9 72.8,18.09 116,4.33 52.04,-16.57 40.39,-41.74 83.56,-35.28 45.31,6.79 42.5,30.58 105.51,29.98 69.55,-0.66 71.16,-31.93 105.64,-43.87 67.07,-23.24 66.2,66.73 199.88,0.92 41.47,-20.41 -27.03,-15.28 53.35,-13.13 77.69,2.09 43.02,37.12 168.78,-24.55 49.29,55.44 79.87,152.01 86.74,236.17l53.63 214.52 18.7 -83.22c5.3,-225.33 -56.35,-435.23 -180.33,-556.85 -118.7,-116.44 -353.11,-203.8 -582.02,-157.52 -121.24,32.26 -220.42,78.41 -287.88,147.92 -78.83,81.22 -91.09,156.83 -147.85,267.29z"/>
   <path class="fil6" d="M6275.34 3484.06c-33.42,37.46 -19.66,-4.74 -29.36,67.96l-6.11 31.86c-31.46,127.13 15.42,227.11 160.31,246.72 163.07,22.08 219.76,-66.29 333.33,-67.18 17.03,-89.83 28.62,-22.87 57.73,-138.82 124.38,8.35 108.98,31.86 192.13,69.44 -16.66,117.79 -76.33,87.67 -121.34,227.84 -89.57,278.95 95.54,711.13 105.19,807.1l-553.15 3.53 -0.04 -10.83c-184.36,0 -291.41,-38.23 -444.41,-43.31 3.9,1.85 9.81,-0.15 11.93,5.03 2.05,5 8.73,3.76 11.53,4.87 3.11,1.24 17.48,7.15 21.61,8.66 97.22,35.55 308.2,48.29 399.37,35.58l68.67 17.59c19.64,1.85 62.22,-0.24 84.1,-0.47l306.11 1.05c117.11,0.56 81.26,8.78 122.73,-56.43 62.19,159.88 81.47,106.07 72.65,189.82 72.3,-147 87.83,-641.56 113.99,-854.59 35.48,-288.96 -422.93,-465.06 -469.85,-468.83l-9.89 -126.8c-119.43,38.93 -245.26,57.59 -371.92,62.76l-22.26 -46.22c-0.96,-6.69 -3.17,-8.63 -5.51,-12.55 -18.65,18.87 -17.71,-14.21 -27.55,46.22z"/>
   <path class="fil8" d="M8796.96 3589.38c-3.18,53.72 -1.91,18.04 17.44,33.79 -5.73,-52.37 2.09,-28.48 -17.44,-33.79 -4.56,-59.97 -15.72,-76.31 -55.68,-126.06l-20.77 -25.15c15.97,49.06 36.51,71.75 46.58,117.74 -110.99,-1.89 -192.91,-40.75 -241.13,-93.55 -8.07,51.34 -23.69,85.4 -28.66,148.58 -4.67,59.43 -7.75,97.65 -16.59,158.79 -94.13,102.42 -327.08,321.72 -461.8,383l-9.57 10.91 26.58 10.11c2.04,0.6 6.75,1.63 8.64,2.12l24.29 4.2c-19.27,149.91 -83.57,676.52 39.6,758.52 31.89,-64.11 -69.44,-615.37 27.71,-788.54 147.57,-41.3 781.07,-127.69 909.06,-94.72 26.27,-84.67 -38.79,63.26 15.91,-20.08 15.73,-23.96 3.87,7.81 15.61,-26.25 33.76,-97.91 -106.39,-225.15 -176.76,-272.91 -98.45,-66.82 -28.13,-26.58 -88.76,-95.11l3.98 66.64c-155,101.33 -199.18,140.5 -377.44,232.13 -110.67,56.89 -103.95,83.04 -136.2,63.16 85.17,-41.62 196.53,-135.7 272.86,-190.53 92.35,-66.34 181.99,-108.77 222.54,-223.02z"/>
   <path class="fil8" d="M7084.94 5992.41c3.29,44.62 11.58,93.81 18.67,137.06 9.93,60.57 19.23,74.26 57.46,101.08 313.56,130.26 1275.84,281.57 1577.72,102.68 57.32,-27.78 45.37,-100.45 44.74,-178.84 -306.2,103.06 -579.11,119.28 -920.16,52.92 -238.25,-46.36 -628.98,-139.41 -779.09,-261.33l0.67 46.44z"/>
   <path class="fil8" d="M7808.46 3330.81c-64.76,-16.46 -87.47,-59.13 -182.33,-49.74 -98.75,9.78 -114.98,56.69 -197.25,49.28 62.61,49.8 46.38,-9.13 73.02,68.42 111.51,324.65 96.79,259.55 319.09,582.8 59.24,86.15 66.28,69.43 41.15,178.56 -41.39,179.73 -70.02,404.25 -58.42,590.61 4.4,70.78 14.6,81.87 40.84,109.83l13.25 -28.18c1.56,-5.07 3.22,-8.33 4.48,-13.87 12.39,-54.18 -48.02,-228.28 61.26,-680.1 5.32,12.19 27.34,5.44 42.71,-3.96 -23.98,-81.48 -29.35,-171.54 -26.76,-260.39 3.42,-117.3 26.93,-138.33 49.84,-234.6 32.68,-42.07 41.48,-97.82 82.76,-131.28 1.54,-40.07 -7.34,-4.34 8.19,-46.98 14.55,-39.93 4.95,-11.63 18.26,-28.17 -45.59,10.48 -20.16,-1.14 -53.72,-19.57l-54.57 -31.17c-2.56,-1.72 -5.89,-4.03 -8.35,-5.83 -35.52,-25.94 -65.44,-69.85 -101.5,-83.64 -53.55,6.17 -24.28,-2.69 -33.44,21.13 19.67,6.31 16.97,230.08 21.39,296.5l20.1 322.57c28.1,-49.39 -123.72,-464.61 -80,-602.22z"/>
   <path class="fil9" d="M3219.49 6457.87l780 0c15.99,-153.12 46.79,-283.11 43.95,-447.51 -79.71,-16.26 -134.38,23.28 -214.34,40.19 -8.97,62.29 14.45,121.33 42.23,159.57 51.35,70.69 103.4,31.8 153.72,53.31 -20.8,40.95 -3.04,32.11 -53.93,42.78 -162.87,34.14 -189.94,-202.68 -209.81,-235.19l-454.59 11.73c-18.42,109.38 -11.87,334.78 -87.22,375.13z"/>
   <path class="fil9" d="M2493.85 6187.71l-55.06 131.84 -1.21 60.19 60.48 78.12 574.13 0c9.8,-114.91 -5.06,-303.97 36.49,-393.76l-416.89 -75.08c-78.66,99.3 -29.84,179.39 -197.93,198.69z"/>
   <path class="fil6" d="M6959.71 5362.48l28.52 5.67 0.57 -36.64c-15.69,-73.08 -29.8,-110.06 -7.19,-166.85 -16.37,10.55 -18.12,-0.59 -12.13,8.2 -3.39,-52.8 0.58,-44.48 -20.96,-80.59 -120.69,-15.49 -294.94,-0.83 -423.42,-2.58l-392.32 -17.01c36.72,36.48 497.51,37.93 600.65,35.37 35.8,-0.89 76.81,-5.08 111.37,-4.88 21.65,0.13 35.28,0.67 56.25,5.41 26.7,6.04 29.47,9.52 40.65,15.97l0 83.26c-195.99,14.67 -465.91,19.34 -667.76,5.77 -200.15,-13.46 -523.91,-82.58 -633.78,-88.79l-10.81 133.48c33.88,13.96 242.18,58.26 304.17,66.47 114.89,15.21 213.31,27.52 327.47,36.43 217.57,16.97 475.11,9.72 698.7,1.33z"/>
   <path class="fil7" d="M2601.43 4991.32c-1.33,48.07 1.62,44.46 -26.09,72.18 -1.86,49.46 -73.39,208.51 -93.32,279 -58.83,207.99 -165.27,633.63 -79.06,835.65 22.89,53.65 17.7,83.05 35.83,141.41l55.06 -131.84 5.45 -40.11 60.76 -165.79 19.36 -92.63c-30.76,-46.17 -16.96,-35.73 -2.41,-100.39 53,-235.61 47.11,-582.28 62.27,-822.05 -3.7,2.49 -9.54,1.35 -11.39,7.03 -1.69,5.17 -8.17,5.08 -10.32,6.51 -2.45,1.63 -12.51,8.18 -16.15,11.04z"/>
   <path class="fil10" d="M3123.11 6438.91l23.92 -370.58 109.59 6.3c-6.44,77.22 -17.22,153.82 -28.92,228.99 -15.73,100.97 -7.19,119.51 -104.59,135.3zm-563.04 -457.09l80.7 -10.12c-15.72,30.13 -32.39,75.55 -54.55,104.43 -35.87,46.74 -44.33,33.83 -86.91,71.48l-5.45 40.11c168.09,-19.3 119.27,-99.39 197.93,-198.69l416.89 75.08c-41.55,89.79 -26.69,278.85 -36.49,393.76l147.31 0c75.35,-40.35 68.8,-265.74 87.22,-375.13l454.59 -11.73c19.87,32.51 46.94,269.33 209.81,235.19 50.89,-10.67 33.13,-1.83 53.93,-42.78 -50.32,-21.51 -102.37,17.39 -153.72,-53.31 -27.78,-38.24 -51.2,-97.28 -42.23,-159.57 79.96,-16.91 134.63,-56.45 214.34,-40.19l2.76 -52.61 13.83 -19.3c-77.35,31.2 -241.76,61.06 -354.51,63.46 -498.57,10.58 -513.75,1.69 -963.52,-76.8l-162.57 -35.92 -19.36 92.63z"/>
   <path class="fil6" d="M8072.1 3508.19c-41.28,33.46 -50.09,89.22 -82.76,131.28 40.63,97.15 -10.93,252.69 175.63,259.98 134.22,5.24 222.34,-82.68 315.74,-129.7 8.83,-61.13 11.91,-99.35 16.59,-158.79 4.97,-63.19 20.59,-97.24 28.66,-148.58l-7.25 -25.06c-103.8,59.39 -258.97,87.63 -446.6,70.87z"/>
   <path class="fil5" d="M4764.8 3559.13c24.43,0 18.63,-5.68 14.69,19.3 20.57,-1.84 14.11,-5.14 10.14,17.64l8.57 19.31c19.61,-1.35 15.18,-6.11 14.43,13.11 3.14,1.4 7.74,0.69 9.05,4.96l58.3 40.88c125.16,75.17 181.07,-57.17 213.39,-88.46 31.02,-99.82 62.42,-181.96 59.33,-300.03 -23.77,-16.39 -22.45,-13.75 -48.69,-26.72 -103.02,47.87 -354.31,0.81 -454.22,-27.39 -19.36,106.7 -35.81,65.55 22.05,177.95 24.56,47.7 60.03,115.33 92.97,149.46z"/>
   <path class="fil2" d="M7159.88 6457.87l1607.56 0 -28.65 -124.64c-301.87,178.89 -1264.15,27.58 -1577.72,-102.68 -44.94,31.36 -23.69,0.56 -28.26,60.38 -0.01,0.16 9.44,57.84 10.44,63.08 6.66,34.77 11.85,68.31 16.62,103.86z"/>
   <path class="fil6" d="M4340.09 3149.07c21.07,14.88 -15.83,0.27 33.96,16.29 15.91,5.12 20.09,5.45 35.95,8.34 33.1,6.04 44.32,3.6 82.85,14.52 -78.04,162.91 -117.69,434.95 -18.13,566.87 37.39,-8.04 66.55,-53.35 144.35,-76.44 148.07,-43.94 191.19,5.39 193.55,-50.16 -24.46,5.26 -20.72,10.69 -14.43,-13.11l-8.57 -19.31 -10.14 -17.64c-22.15,1.8 -14.88,5.83 -14.69,-19.3 -32.94,-34.13 -68.41,-101.76 -92.97,-149.46 -57.86,-112.4 -41.41,-71.25 -22.05,-177.95l0.05 -8.55 -1.09 -44.98c-166.4,-55.29 -254.93,-228.09 -264.2,-234.17 -67.97,-44.57 67.51,3.81 -28.33,-6.96 -2.4,-0.27 -9.7,5.84 -11.52,1.91 -1.94,-4.21 -8.63,0.77 -12.16,2.99 87.34,31.36 10.18,9.7 163.27,157.56 2.02,1.95 5.44,4.54 7.26,6.59l16.59 32.17c0.56,1.67 1.67,6.18 1.41,9.31 -55.78,26.75 -111.97,2.89 -180.95,1.49z"/>
   <path class="fil0" d="M2992.19 3861.95l20.63 78.81c34.78,62.7 27.53,151.35 65.61,215.26 37.81,63.46 120.84,51.63 183.66,11.15 104.63,-67.43 162.63,-211.12 228.02,-355.06l-0.78 -40.21c-69.52,2.82 -180.85,33.05 -270.68,42.43 -258.8,27.02 -239.82,-20.85 -226.48,47.63z"/>
   <path class="fil6" d="M5184.03 3116.57c3.04,24.26 8.29,17.52 -16.23,19.82l-79.54 41.91 2.68 52.03 13.07 28.78c26.24,12.98 24.92,10.33 48.69,26.72 3.09,118.06 -28.31,200.21 -59.33,300.03 56.21,1.14 93.55,-18.73 154.98,-22.12 68.5,-3.78 136.05,4.94 205.23,5.17 -15.93,-182.54 -72.12,-268.92 -160.96,-392.58 -37.43,-52.1 -37.51,-73.18 -108.59,-59.76z"/>
   <path class="fil11" d="M5553.77 5780.07l40.78 -48.87c50.59,12.2 101.38,39.69 157.78,56.67 175.76,52.91 379,95.28 564.38,96.4 143.8,0.87 673.99,-52.22 702.7,-172.11l7.68 -30.54c-56.36,15.17 -102.35,45.9 -172.78,63.79 -72.24,18.35 -126.73,28.1 -202.37,33.97 -322.2,10.31 -828.46,23.33 -1066.68,-126.92l-31.49 127.61z"/>
   <path class="fil5" d="M4366.26 5062.54c210.93,246.11 394.77,508.19 839.09,523.23 131.54,4.45 329.39,-6.16 391.01,-58.46 -63.09,-25.17 -288.51,48.02 -709.3,-139.39 -181.64,-80.91 -397.06,-212.02 -520.8,-325.38z"/>
   <path class="fil6" d="M5820.82 3555.84c0,24.61 6.9,21.64 -15.23,15.62 5.23,23.6 8.13,16.93 -16.7,11.23 6.18,26.25 11.44,22.33 -13.98,13.72 4.26,19.56 6.9,13.16 -15.19,12.78 5.75,25.64 9.22,19.54 -16.37,11.39 3.98,22.42 9.92,18.68 -11,16.98l-25.46 70.24c-7.12,69.21 1.29,250.03 26.55,287.7l209.13 -287c32.37,-45.57 68.91,-102.41 101.66,-147.88 100.24,-139.18 37.12,-132.05 100.55,-139.2 -30.2,11.6 -22.38,16.46 -22.38,-16.14l-64.33 14.83c-171.81,72.81 -106.22,52.45 -237.25,135.72z"/>
   <path class="fil10" d="M7966.26 4134.46c31.12,52.1 -0.76,22.49 43.08,29.2l9.57 -10.91c134.72,-61.28 367.67,-280.58 461.8,-383 -93.4,47.02 -181.52,134.94 -315.74,129.7 -186.56,-7.29 -135,-162.83 -175.63,-259.98 -22.91,96.27 -46.42,117.31 -49.84,234.6 -2.59,88.85 2.78,178.92 26.76,260.39z"/>
   <path class="fil7" d="M4060.02 5938.45l-13.83 19.3 -2.76 52.61c2.84,164.4 -27.96,294.39 -43.95,447.51l36.51 0c29.32,-190.07 128.61,-490.9 124.68,-681.19 -29.22,-74.29 -32.8,-60.83 -21.43,-161.41 6.61,-58.57 9.69,-112.6 13.66,-171.62 7.66,-113.92 8.86,-240.65 19.44,-355.67l-16.84 -11.42 -11.5 -15.91 -14.08 -12.42c-26.23,-26.33 -33.21,-34.4 -51.36,-59.49 -13.53,52.26 17.5,379.27 20.98,469.13 5.26,135.69 35.02,379.04 -39.52,480.58z"/>
   <path class="fil5" d="M5732.36 3637.56c-4.54,-27.56 -13.32,-27.59 11,-16.98l16.37 -11.39c-5.43,-25.87 -10.04,-21.09 15.19,-12.78 -3.71,-23.91 -9.03,-20.07 13.98,-13.72 -7.28,-23.72 -9.11,-16.23 16.7,-11.23 -5.13,-20.74 -8.04,-13.86 15.23,-15.62 131.03,-83.27 65.44,-62.91 237.25,-135.72l64.33 -14.83c35.94,-1.63 36.61,-13.28 22.38,16.14l57.54 -5.4 4.71 -52.2c-128.81,9.44 -150.85,70.23 -302.19,-5.71 -100.66,-50.51 -151.6,-131.92 -202.06,-163.66 -0.59,76.26 12.16,154.37 12.59,235.63 0.2,37.71 0.09,74.54 -0.54,112.24 -0.74,44.63 -12.48,82.03 17.52,95.23z"/>
   <path class="fil2" d="M8543.06 3368.26c-7.9,43.13 -0.84,41.69 -24.36,69.05l7.25 25.06c48.22,52.8 130.15,91.65 241.13,93.55 -10.07,-45.99 -30.61,-68.69 -46.58,-117.74l-15.38 -47.49c63.78,19.39 96.26,32.44 169.11,27.94 -7.2,-73.97 -33.4,-70.13 -32.81,-173.87 -73.41,-54.32 -125.48,-12.6 -172.24,24.11 -39.43,30.95 -87.74,69.85 -126.13,99.39z"/>
   <path class="fil10" d="M4395.43 2512.89c39.74,-58.3 47.68,-177.14 46.83,-261.97 65.42,12.87 49.26,23.76 130.06,14.41 12,-18.54 21.09,-31.83 36.13,-55.59 179.13,27.87 116.11,58.3 236.11,-23.93 37.91,12 74.67,28.22 122.95,21.88 49.74,-6.54 50.8,-24.71 85.39,-52.78 91.39,34.87 83.73,46.23 184.34,19.03 11.52,32.36 18.13,49.11 32.59,80.94 5.22,11.48 12.68,27.67 18.26,37.13l32.09 43.36c-6.86,-84.16 -37.45,-180.72 -86.74,-236.17 -125.76,61.67 -91.09,26.64 -168.78,24.55 -80.38,-2.16 -11.89,-7.28 -53.35,13.13 -133.69,65.81 -132.81,-24.16 -199.88,-0.92 -34.48,11.94 -36.09,43.21 -105.64,43.87 -63.01,0.6 -60.2,-23.2 -105.51,-29.98 -43.17,-6.46 -31.52,18.7 -83.56,35.28 -43.2,13.76 -79.7,0.57 -116,-4.33l-5.28 332.09z"/>
   <path class="fil12" d="M8665.97 2754.07l4.65 -330.9c-24.78,72.18 -164.35,188.53 -289.11,131.91l31.79 -42.35c34.07,-35.89 67.55,-54.57 92.26,-114.39 -110.96,32.9 -178.95,85.79 -328.82,99.55 -156.67,14.39 -260.69,-38.2 -368.85,-33.2 8,-22.3 9.18,-13.15 -18.82,-17.14l18.82 17.14 -1.73 33.45c92.28,32.86 212.54,51.48 316.68,49.54 56.17,-1.05 114.17,-8.9 161.78,-21.64l98.11 -29.27c-37.62,43.36 -46.98,39.58 -54.73,101.63 81.34,18.9 228.48,0.51 283.41,-35.89 8.54,47.72 3.4,120.21 31.7,164.91 13.28,20.96 7.68,13 22.87,26.65z"/>
   <path class="fil12" d="M6079.04 2624.47c328.34,-158.74 357.37,-58.9 612.74,-143.36l52.46 146.13c40.83,63.32 80.34,94.33 88.38,106.9 52.77,82.43 0.5,292.22 19.86,371.24 28.69,-46.72 31.88,-326.33 14.26,-394.02 -20.48,-78.68 -133.45,-76.97 -123.18,-307.31 -130.55,34.22 -42.64,65.37 -357.68,72.91 -150.9,3.61 -263.24,35.88 -306.84,147.51z"/>
   <path class="fil13" d="M3458.38 3725.7c20.68,38.43 -0.01,16.79 30.96,46.2l0.78 40.21c-65.39,143.94 -123.4,287.63 -228.02,355.06 -62.82,40.49 -145.85,52.31 -183.66,-11.15 -38.08,-63.91 -30.83,-152.56 -65.61,-215.26 4.59,94.93 -22.27,208.25 42.24,280.04 108.89,121.19 419.1,-13.54 482.96,-437.21l53.57 3.97 -36.48 -14.19c-36.48,-15.86 -8.75,2.13 -36.97,-19.35 -47.72,-36.33 12.92,-20.76 -46.04,-41.75l-13.72 13.42z"/>
   <path class="fil5" d="M2237.43 4661.35c10.45,78.93 107.62,142.18 177.99,196.73 29.94,23.2 87.73,53.7 109.54,72.11 60.5,51.06 23.67,82.95 50.39,133.31 -0.83,-16.44 -9.81,0.12 2.72,-36.03 17.15,-49.49 13.17,-25.55 23.38,-36.15 2.39,-32.76 0.96,-25 7.96,-41.41 29.96,-70.19 1.69,-13.23 28.7,-46.42l-1.65 -72.19c-74.65,-23.7 -298.52,-149.84 -382.68,-199.21 -55.38,-32.49 -74.35,-48.68 -64.62,-132.21 -44.6,112.7 31.22,63 48.28,161.46z"/>
   <path class="fil2" d="M6127.78 3263.49c-63.3,-31.81 -102.86,-196.34 -96.43,-283.17l-95.94 -27.83 4.5 18.2c-30.44,114.92 -34.32,221.24 -32.93,341.98l162.05 -13.05c56.81,-16.15 30.91,5.52 58.76,-36.13z"/>
   <path class="fil14" d="M5080.24 2918.78c-5.36,20.17 5.14,15.04 -7.88,26.93 -100.76,8.9 -244.1,-5.36 -326.58,-42.4 -25.35,-11.21 -8.13,-10.75 -28.61,-1 8.54,100.15 92.07,182.49 197.09,186.3 99.34,3.6 162.96,-97.02 196.83,-172.41l-13.52 -4.18c-1.65,-0.11 -13.3,4.5 -17.33,6.76z"/>
   <path class="fil10" d="M5373.81 2549.89l12.22 217.14c103.23,-4.61 164.9,-36.44 166.23,-142.59 1.51,-120.67 -62.56,-131.67 -159.75,-157.76l-18.7 83.22z"/>
   <path class="fil12" d="M7771.74 2976.82c-13.96,-123.14 -15.56,-229.36 5.8,-342.95 -101.7,3.61 -145.94,53.35 -150.41,171.13 -5.36,141.35 59.17,167.57 144.61,171.82z"/>
   <path class="fil9" d="M3123.11 6438.91c97.41,-15.78 88.87,-34.33 104.59,-135.3 11.7,-75.17 22.48,-151.77 28.92,-228.99l-109.59 -6.3 -23.92 370.58z"/>
   <path class="fil5" d="M3679.63 3356.04c84.63,-21.41 152.81,-21.78 162.59,-123.07 9.53,-98.78 -53.95,-150.42 -148.42,-146.4l-14.17 269.47z"/>
   <path class="fil12" d="M5935.41 2952.48l95.94 27.83c-21.07,-47.72 -12.6,-108.8 -9.96,-172.34 4.85,-116.63 5.56,-83 35.26,-155.03 -28.37,17.43 -11.57,35.68 -66.62,-34.9l-18.59 -25.3c14.56,45.54 5.41,23.79 34.81,68.32 -65.01,15.22 -92.37,38.29 -106.63,118.02 -15.65,87.47 23.22,124.17 35.78,173.39z"/>
   <path class="fil5" d="M2992.19 3861.95c-13.35,-68.48 -32.32,-20.61 226.48,-47.63 89.83,-9.38 201.16,-39.61 270.68,-42.43l0.78 40.21 -0.78 -40.21c-30.97,-29.41 -10.28,-7.77 -30.96,-46.2l13.72 -13.42 -13.72 13.42c-79.05,24.88 -207.91,36.36 -295.04,29.62 -44.27,-3.43 -101.46,-13.86 -143.72,-26.91 -127.98,-39.52 16.2,-39.39 -106.89,-58.46 57.65,34.13 33.47,3.19 51.43,85.28 8.19,37.44 16.09,75.62 28.04,106.73z"/>
   <path class="fil12" d="M6324.2 3405.95l14.4 14.84c0.84,-2.82 3.77,6.68 6.87,8.67 -69.16,11.59 -80.17,-1.39 -143.15,-13.44 33.63,38.67 13.05,7.81 42.2,31.72 12.43,10.19 1.07,-1.93 15.04,12.7 25.13,26.32 6.06,-2.4 15.77,23.61 -10.84,29.34 -15.56,32.32 -29.36,67.96l-6.11 31.86 6.11 -31.86c9.7,-72.69 -4.06,-30.5 29.36,-67.96 9.84,-60.44 8.9,-27.35 27.55,-46.22 2.35,3.92 4.55,5.87 5.51,12.55l22.26 46.22c126.67,-5.17 252.5,-23.83 371.92,-62.76l0.79 -68.74c-135.8,15.63 -215.9,59.15 -379.18,40.85z"/>
   <path class="fil12" d="M8098.55 3433.04c-13.31,16.54 -3.71,-11.76 -18.26,28.17 -15.54,42.64 -6.65,6.91 -8.19,46.98 187.63,16.76 342.8,-11.49 446.6,-70.87 23.52,-27.36 16.46,-25.93 24.36,-69.05 -63.99,9.81 -123.58,46.98 -193.9,62.9 -101.63,23.01 -150.07,15.64 -250.61,1.88z"/>
   <path class="fil8" d="M4130.74 2162.06l63.69 5.45c56.77,-110.46 69.02,-186.07 147.85,-267.29 67.46,-69.5 166.63,-115.65 287.88,-147.92l24.86 -43.07c-104.37,79.6 -230.13,-50.44 -443.7,295.11 -68.61,111 6.16,61.52 -80.57,157.72z"/>
   <path class="fil6" d="M5245.61 3874.54c25.13,19.77 43.86,20.12 84.37,18.98l287.47 -34.96 -1.78 -72.48 -309.8 21.94c-74.35,9.15 -62.53,5.76 -60.26,66.53z"/>
   <path class="fil5" d="M2832.97 2939.06l40.35 -48.57c477.75,0.39 334.41,-22.29 692.17,-71.62 26.19,45.71 18,56.43 57.74,66.52l-42.57 -91.11c-55.17,4.81 -114.08,23.52 -171.1,30.98 -184.56,24.16 -391.08,13.22 -562.02,24.87l-14.57 88.93z"/>
   <path class="fil1" d="M8811.21 3640.99l3.19 -17.82c-19.35,-15.75 -20.62,19.94 -17.44,-33.79 -40.55,114.24 -130.19,156.67 -222.54,223.02 -76.33,54.83 -187.69,148.91 -272.86,190.53 32.24,19.88 25.53,-6.27 136.2,-63.16 178.26,-91.64 222.43,-130.8 377.44,-232.13l-3.98 -66.64z"/>
   <path class="fil10" d="M4649.83 3223.17l-0.05 8.55c99.92,28.2 351.2,75.27 454.22,27.39l-13.07 -28.78 -24.16 -32.37c-129.63,26.05 -261.21,42.69 -388.89,-5.35l-28.06 30.56z"/>
   <path class="fil5" d="M4200.09 3953.83c-5.61,-156.38 -14.11,-326.87 -72.34,-431.93 28.14,157.4 59.69,397.28 63.96,521.86 28.09,-124.09 132.14,-233.89 146.56,-594.94 -23.17,76.55 -41.44,154.11 -61.79,242.57l-54.93 227.8c-11.85,24.93 -9.5,19.78 -21.46,34.63z"/>
   <path class="fil1" d="M7808.46 3330.81c-43.72,137.61 108.1,552.83 80,602.22l-20.1 -322.57c-4.43,-66.42 -1.72,-290.19 -21.39,-296.5l-38.5 16.85z"/>
   <path class="fil12" d="M6959.71 5362.48c45.28,49.43 30.1,41.17 44.47,123.1 20.1,114.65 49.07,160.88 -71.09,206.46 -22.64,8.59 -27.24,11.38 -45.19,19.94 -87.49,41.73 -220.6,25.45 -235.96,67.39 75.64,-5.87 130.13,-15.62 202.37,-33.97 70.43,-17.89 116.42,-48.62 172.78,-63.79 37.3,-66.62 18.16,-108.8 3.28,-181.65 -5.52,-27 -15.26,-70.91 -20.39,-92.26 -7.84,-32.61 -10.84,-52.54 -21.19,-76.2l-0.57 36.64 -28.52 -5.67z"/>
   <path class="fil2" d="M6310.02 3194.1c82.31,122.06 203.77,106.79 220.24,-61.85l-50.34 31.36c-29.9,17.65 -9.93,8.46 -47.36,20.55 -62.61,20.22 -59.39,20.8 -122.54,9.94z"/>
   <path class="fil2" d="M8060.26 3201.92c74.02,62.05 302.62,18.51 333.71,-71.47 -64.57,-11.77 -20.21,-7.17 -78,21.37 -79.27,39.14 -207.04,33.62 -255.7,50.09z"/>
   <path class="fil6" d="M5080.24 2918.78c-41.67,-28.01 -93.29,-13.67 -180.25,-19.44l-123.95 -16.91c-41.95,5.62 -8.63,-21.37 -30.26,20.88 82.48,37.04 225.81,51.3 326.58,42.4 13.02,-11.89 2.52,-6.76 7.88,-26.93z"/>
   <path class="fil14" d="M4535.09 2570.48c117.31,-61.42 73.09,-84.65 238.24,-31.77 -63.44,-123.9 -193.23,-112.14 -238.24,31.77z"/>
   <path class="fil10" d="M3480.74 3428.55c-1.46,-63.94 -44.63,-81.07 -94.52,-110.76 -57.01,120.78 -35.6,141.48 94.52,110.76z"/>
   <path class="fil2" d="M8386.78 2872.06c-56.01,-6.06 -71.36,-5.04 -103.41,12.77l-15.93 17.48c17.56,11.96 0.91,10.44 34.99,17.07l96.01 0.63c55.53,8.93 41.84,30.25 91.82,10.07 -22.11,-44.9 -40.36,-51.2 -103.47,-58.03z"/>
   <path class="fil9" d="M2499.31 6147.6c42.57,-37.65 51.04,-24.74 86.91,-71.48 22.16,-28.87 38.83,-74.29 54.55,-104.43l-80.7 10.12 -60.76 165.79z"/>
   <path class="fil2" d="M7820.89 2842.98c194.88,-5.33 107.93,40.67 197.08,26.12 -9.51,-72.6 -188.08,-112.38 -197.08,-26.12z"/>
   <path class="fil14" d="M5077.12 2477.01c109.99,-51.17 74.15,-53.63 208.6,-18.71 -52.06,-75.22 -175.81,-126.48 -208.6,18.71z"/>
   <path class="fil14" d="M4643.17 2731.12c24.71,-1.34 27.69,-6.77 59.9,-3.61 40.04,3.91 54.3,23.28 95.58,8.14 -27.25,-72.43 -166.57,-75.64 -201.33,-13.89 25.31,20.43 -9.47,12.36 45.86,9.36z"/>
   <path class="fil12" d="M8000.84 3041.2c2.4,2.76 1.87,23.05 25.4,39.88 28.19,20.17 14.8,10.24 51.31,12.56 12.89,-34.77 20.07,-82.82 13.22,-130.72 -40.51,19.47 -69.72,37.06 -89.92,78.28z"/>
   <path class="fil15" d="M3147 3518.62l50.04 32.29c18.74,8.42 55.43,18.38 78.07,21.2 65.31,8.13 114.62,-1.37 155.44,-47.9 -95.78,22.43 -165.76,29.9 -263.66,-21.31l-19.89 15.72z"/>
   <path class="fil15" d="M3444.33 3093.59c89.37,-24.42 87.77,-35.97 191.1,-26.7 -21.42,-30.02 -43.31,-50.3 -96.35,-49.84 -71.57,0.61 -76.06,20.74 -94.75,76.55z"/>
   <path class="fil14" d="M5105.55 2696.44c41.08,-10.21 55.73,-23.6 87.54,-30.83 46.74,-10.63 58.63,1.69 94.61,-13.3 -13.44,-33.78 23.83,-21.92 -38.83,-34.63 -33.13,-6.72 -128.1,-5.13 -143.32,78.76z"/>
   <path class="fil2" d="M8291.51 2715.88c76.25,-26.41 166.78,7.89 211.7,22.44 -45.23,-63.23 -118.6,-87.03 -179.45,-64.42 -40.81,15.17 -28.17,17.87 -32.26,41.97z"/>
   <path class="fil15" d="M3161.05 3368.95c15.33,-68.91 26.44,-96.59 -42.75,-118.6 -9.1,13.72 -24.98,34.27 -21.07,66.76 5.32,44.31 21.96,43.01 63.82,51.84z"/>
   <path class="fil2" d="M6198.98 2987.63c0.65,-13.18 40.98,-43.33 1.63,-116.8 -84,23.93 -77.1,90.87 -1.63,116.8z"/>
   <path class="fil10" d="M4986.61 2786.96c12.46,67.15 11.04,33.04 24.61,50.39 129.45,-45.68 -6.1,-98.24 -20.54,-120.7 -9.18,32.6 -11.09,32.47 -4.07,70.31z"/>
   <path class="fil15" d="M3552.89 3294.47c43.08,-41.19 38.77,-60.14 14.09,-114.08 -75.16,8.96 -77.92,80.51 -14.09,114.08z"/>
   <path class="fil14" d="M3001.09 3179.61c26.95,-12.8 49.31,-29.39 83.59,-37.73 42.31,-10.3 73.74,-4.2 105.73,-17.34 -75.85,-76.21 -162.4,-5.35 -189.31,55.07z"/>
   <path class="fil2" d="M7813.81 2680.46c105.97,-15.7 128.42,-23.19 203.12,4.96 -10.74,-20.71 -10.7,-31.48 -35.91,-45.69 -40.81,-23 -118.51,-15.81 -167.21,40.73z"/>
   <path class="fil2" d="M6566.87 2918.36c-20.01,44.26 -19.65,64.65 -1.7,109.6 79.41,-13.89 74.39,-95.81 1.7,-109.6z"/>
   <path class="fil13" d="M6202.33 3416.02c62.98,12.05 73.99,25.03 143.15,13.44 -3.11,-1.99 -6.04,-11.48 -6.87,-8.67l-14.4 -14.84 -117.16 -42.13 -4.71 52.2z"/>
   <path class="fil12" d="M6296.14 2975.99c-17.76,40.85 -38.51,52.79 -54.34,92.99 22,25.82 15.39,31.55 55.28,42.21l-0.94 -135.2z"/>
   <path class="fil15" d="M6122.43 2775.26c57.13,-52.86 86.61,-16.5 126.96,15.94 -17.72,-57.79 -19.83,-62.08 -90,-76.75l-48.62 51.29 11.67 9.52z"/>
   <path class="fil15" d="M6530.37 2825.46c68.24,-52.85 104.48,-18.12 134.22,9.62 -26.45,-106.17 -109.18,-55.87 -134.22,-9.62z"/>
  </g>
 </g>
</svg>
